<?xml version="1.0" encoding="UTF-8" standalone="no"?>
<svg
   xmlns:dc="http://purl.org/dc/elements/1.1/"
   xmlns:cc="http://creativecommons.org/ns#"
   xmlns:rdf="http://www.w3.org/1999/02/22-rdf-syntax-ns#"
   xmlns:svg="http://www.w3.org/2000/svg"
   xmlns="http://www.w3.org/2000/svg"
   xmlns:sodipodi="http://sodipodi.sourceforge.net/DTD/sodipodi-0.dtd"
   xmlns:inkscape="http://www.inkscape.org/namespaces/inkscape"
   height="480"
   width="640"
   version="1.1"
   id="svg43"
   sodipodi:docname="world.svg"
   inkscape:version="1.0.2 (e86c870879, 2021-01-15, custom)">
  <metadata
     id="metadata47">
    <rdf:RDF>
      <cc:Work
         rdf:about="">
        <dc:format>image/svg+xml</dc:format>
        <dc:type
           rdf:resource="http://purl.org/dc/dcmitype/StillImage" />
        <dc:title></dc:title>
      </cc:Work>
    </rdf:RDF>
  </metadata>
  <sodipodi:namedview
     pagecolor="#ffffff"
     bordercolor="#666666"
     borderopacity="1"
     objecttolerance="10"
     gridtolerance="10"
     guidetolerance="10"
     inkscape:pageopacity="0"
     inkscape:pageshadow="2"
     inkscape:window-width="1920"
     inkscape:window-height="1054"
     id="namedview45"
     showgrid="false"
     showguides="true"
     inkscape:guide-bbox="true"
     inkscape:zoom="1.0532945"
     inkscape:cx="287.84897"
     inkscape:cy="220.40363"
     inkscape:window-x="0"
     inkscape:window-y="0"
     inkscape:window-maximized="1"
     inkscape:current-layer="g3388">
    <sodipodi:guide
       position="0,480"
       orientation="-1,0"
       id="guide64"
       inkscape:label=""
       inkscape:locked="false"
       inkscape:color="rgb(0,0,255)" />
    <sodipodi:guide
       position="640,480"
       orientation="-1,0"
       id="guide66"
       inkscape:label=""
       inkscape:locked="false"
       inkscape:color="rgb(0,0,255)" />
  </sodipodi:namedview>
  <defs
     id="defs5">
    <clipPath
       id="a">
      <path
         fill-opacity=".67"
         d="M0 0h682.67v512H0z"
         id="path2" />
    </clipPath>
  </defs>
  <g
     id="g3388"
     transform="matrix(0.79,0,0,0.8,-75,-361.88975)">
    <rect
       y="452.36218"
       x="94.936707"
       height="600"
       width="810.12659"
       id="rect4145"
       style="opacity:1;fill:#0000cc;fill-opacity:1;stroke:none;stroke-width:0;stroke-linecap:butt;stroke-linejoin:miter;stroke-miterlimit:4;stroke-dasharray:none;stroke-dashoffset:0;stroke-opacity:1" />
    <path
       d="m 309.75,752.3621 h 380.5 M 499.99015,942.3511 A 178.04999,214.77858 0 0 0 595,752.36206 178.04999,214.77858 0 0 0 499.99016,562.37302 M 634.3167,618.01704 A 144.76337,62.75 0 0 1 500,657.36206 144.76337,62.75 0 0 1 365.6833,618.01705 M 500.00985,942.3511 A 178.04999,214.77858 0 0 1 405,752.36206 178.04999,214.77858 0 0 1 500.00984,562.37302 m -0.01,-0.26092 v 380.5 M 634.3167,886.70708 A 144.76337,62.75 0 0 0 500,847.36206 144.76337,62.75 0 0 0 365.6833,886.70707 M 690,752.36218 a 190,190 0 0 1 -190,190 190,190 0 0 1 -190,-190 190,190 0 0 1 190,-190 190,190 0 0 1 190,190 z"
       style="fill:none;fill-rule:evenodd;stroke:#ffffff;stroke-width:20;stroke-linecap:butt;stroke-linejoin:miter;stroke-miterlimit:4;stroke-dasharray:none;stroke-opacity:1"
       id="path4174" />
  </g>
</svg>
