<?xml version="1.0" encoding="UTF-8"?>
<!-- Created with Inkscape (http://www.inkscape.org/) -->
<svg width="180mm" height="30mm" version="1.1" viewBox="0 0 180 30" xmlns="http://www.w3.org/2000/svg">
 <g stroke="#000">
  <g transform="matrix(-.23872 0 0 .26745 30.285 -6.2321)" stroke-width=".72549">
   <path d="m-58.401 133.74c-1.4038-1.2997-1.6084-1.6152-1.6792-2.5894l-0.08062-1.1094-4.0953-0.99672-1.855-2.4571c-1.0202-1.3514-1.855-2.6858-1.855-2.9653 0-0.27949 0.16654-1.0615 0.37008-1.7379l0.37008-1.2297-1.0977-0.28216c-1.5448-0.39708-3.4215-1.018-3.7947-1.2554-0.17368-0.11049-1.0219-1.4482-1.885-2.9726-1.534-2.7094-1.5698-2.8184-1.5925-4.8471-0.01278-1.1414-0.09233-2.293-0.17676-2.559-0.08443-0.266-0.9842-1.1548-1.9995-1.9751-1.606-1.2976-2.004-1.8061-3.0613-3.9113l-1.2153-2.4198 1.3791-4.3777c0.75851-2.4077 1.4652-4.6753 1.5703-5.0391 0.15742-0.54456 0.8892-0.97466 4.1408-2.4337 2.1723-0.97474 4.0744-1.7784 4.227-1.7859 0.16375-0.0081 0.44997 1.5942 0.69871 3.9113l0.42134 3.925 1.5502 2.4621c1.4293 2.2701 1.9588 2.8173 4.412 4.56 0.37371 0.26548 0.56721 1.0472 0.87043 3.5164 0.38797 3.1592 0.398 3.1885 2.0217 5.887l1.6318 2.712h2.2196l0.1673 1.6536c0.44169 4.3658 0.29196 3.9869 2.2136 5.602 1.166 0.97997 1.9918 1.4756 2.4584 1.4756 0.57535 0 0.73266 0.14984 0.86806 0.82682 0.09095 0.45475 0.16536 1.2364 0.16536 1.7369 0 0.62921 0.41559 1.5902 1.3465 3.1136l1.3465 2.2035 3.4127 0.36547-1.6763 1.269c-1.5799 1.196-1.8961 1.3175-5.5003 2.1138-2.1032 0.46463-4.0209 0.90002-4.2615 0.96754-0.27292 0.0766-1.0387-0.43388-2.036-1.3572zm181.74-40.396c-0.31525-1.0628-0.66445-2.2299-0.77599-2.5937-0.17574-0.5731-0.73052-0.84417-4.1532-2.0293l-3.9504-1.3678-2.4889 0.51048c-1.3689 0.28076-2.514 0.47956-2.5446 0.44178-0.0306-0.03779-0.1643-0.54495-0.29704-1.127-0.21406-0.93868-0.56575-1.3051-3.1106-3.2411-1.9362-1.473-3.0952-2.1804-3.564-2.1755-0.38209 4e-3 -2.3587 0.23512-4.3924 0.51358-2.0337 0.27846-3.7601 0.44612-3.8365 0.37256-0.07632-0.07355-0.37688-0.86231-0.66792-1.7528l-0.52917-1.6191-9.163-2.9983-9.9777 1.0757-4.4538-4.198-8.8018-3.0187-6.1035 0.683c-3.3569 0.37565-6.1616 0.62486-6.2327 0.55379-0.07107-0.07106 0.48771-3.2416 1.2417-7.0457l1.3709-6.9165 2.2745-1.2346c2.8067-1.5235 9.0333-5.1993 10.518-6.2093l1.0997-0.74809 8.3143 1.8626 6.3263 4.8454 2.4394-0.3081c1.3416-0.16945 2.97-0.49653 3.6185-0.72684l1.1792-0.41874 10.063 2.9823 1.2368 1.8966c0.68022 1.0431 1.6043 2.6407 2.0534 3.5502 0.44917 0.9095 0.87402 1.6536 0.94412 1.6536s1.124-0.53884 2.3421-1.1974l2.2146-1.1974 9.12 4.1147 1.4552 2.9104c0.80033 1.6007 1.4957 2.9547 1.5453 3.0088 0.0496 0.05409 0.85752-0.04645 1.7954-0.22341l1.7053-0.32176 2.6607 1.8109 2.6607 1.8109 0.0116 7.0658 0.0117 7.0658-1.2172 2.8561c-0.66947 1.5709-1.2513 2.8922-1.2929 2.9363-0.0416 0.04411-0.33358-0.78933-0.64883-1.8521zm-157.13-24.768c-0.74478-0.2859-1.5658-0.9316-2.3465-1.8453-0.66044-0.77306-1.146-1.4603-1.0791-1.5273 0.06693-0.06693 0.98667 0.07365 2.0439 0.3124 2.043 0.46136 2.2655 0.6857 2.8026 2.826 0.20536 0.81823 0.13197 0.83033-1.4209 0.2342zm60.202-9.2949c-1.1555-1.3733-0.93603-3.4304 0.43526-4.0789 3.0523-1.4435 4.9751-2.287 5.2137-2.287 0.28584 0-2.8443 4.7333-4.1795 6.3201l-0.75402 0.89611z" fill="#f6fc1d"/>
   <path d="m-45.54 129.19c-0.57656-0.0875-0.99562-0.55024-2.0505-2.2644-1.1786-1.9151-1.3259-2.3196-1.3259-3.6414v-1.4869l5.6842-3.7678c3.1263-2.0723 5.7584-3.8879 5.8491-4.0347 0.34117-0.55202 0.90882-3.5001 0.71129-3.694-0.11328-0.11124-0.8608-0.23497-1.6612-0.27498-1.4256-0.0712-1.5648-9e-3 -6.8504 3.0515-2.9674 1.7183-6.1654 3.5956-7.1067 4.1718-0.94135 0.57617-1.7568 1.0024-1.812 0.9471-0.10978-0.10979-0.64906-5.0404-0.55845-5.1058 0.06813-0.0492 9.186-5.1451 11.549-6.4547 1.7029-0.94371 1.7041-0.94524 2.143-2.6841l0.4391-1.7399-1.0763-1.6297-1.0763-1.6297h-1.6883c-1.6694 0-1.7422 0.03167-6.4906 2.8246-2.6413 1.5536-5.8337 3.4432-7.0944 4.1992l-2.2921 1.3746-0.14298-0.82579c-0.65001-3.7543-0.76377-5.307-0.40459-5.5219 0.20305-0.12154 3.0481-1.7396 6.3223-3.5956 6.2552-3.5459 6.2871-3.5731 6.9072-5.8916l0.3245-1.2133-1.3999-2.0251c-0.76997-1.1138-1.4744-2.0255-1.5653-2.0259-0.09096-5.29e-4 -1.2035-0.18243-2.4722-0.40436l-2.3068-0.40352-3.514 2.2396c-7.3366 4.6758-8.6962 5.5136-8.7889 5.4163-0.07694-0.08076-0.94281-6.7217-0.94281-7.2311 0-0.07777 1.518-0.90348 3.3734-1.8349 1.8554-0.93143 4.5191-2.3438 5.9194-3.1386l2.546-1.4451 1.952 0.50853c2.6978 0.70284 7.536 0.55655 10.022-0.30303 0.94589-0.32709 1.7634-0.6374 1.8166-0.68958 0.18156-0.1779-16.447-18.425-17.004-18.659-0.90733-0.38154-3.9105-1.0815-4.0485-0.94357 0.85835-4.9656-0.79709-10.197 0.30119-15.115 0.03564-0.03734 3.4474 1.5879 7.5816 3.6116 9.9766 4.8835 22.01 10.626 22.093 10.543 0.0365-0.0365 0.34414-2.3876 0.68366-5.2247l0.6173-5.1583 1.2894 5.2917c1.6367 6.7169 3.7831 14.034 5.1513 17.56l1.0643 2.743-4.9202 6.5174c-4.6611 6.1742-5.6279 7.4096-5.3076 6.782 0.07426-0.14552 1.062-3.2374 2.1949-6.8709 1.9864-6.3707 2.0485-6.6488 1.7412-7.7979-0.17529-0.65538-0.37186-1.2448-0.43684-1.3097-0.06498-0.06498-1.2006 0.13096-2.5236 0.43541l-2.4054 0.55355-4.8246-1.6792-1.5185-2.6232c-0.83518-1.4428-1.6733-2.7632-1.8624-2.9343-0.33778-0.30558-4.4344-1.5619-4.5746-1.4028-0.03935 0.04467 1.7666 3.0107 4.0133 6.5911l4.0849 6.5099 3.083-0.62637c1.6957-0.3445 3.1914-0.59026 3.3238-0.54612 0.13241 0.04414-1.5015 0.9-3.6308 1.9019-4.3181 2.0318-4.1199 1.75-2.9163 4.1454 1.7377 3.4582 7.0323 10.272 9.9997 12.869l0.98926 0.86578-1.3557 1.5155c-0.74564 0.83351-1.7351 2.295-2.1987 3.2479-0.77532 1.5933-0.89613 1.7176-1.5045 1.5477-1.4306-0.39938-1.5168-0.33148-1.8249 1.4379-0.43147 2.4777-0.39448 2.822 0.30357 2.8262 1.3308 8e-3 1.7138 0.33475 3.0619 2.612 0.75342 1.2726 1.3715 2.4847 1.3735 2.6934 0.0021 0.20873-0.29207 1.9869-0.65348 3.9514-0.36142 1.9645-0.72473 4.0135-0.80736 4.5533-0.13302 0.869-0.6417 1.4184-4.4397 4.7955-2.3592 2.0977-4.5781 4.1266-4.9309 4.5087-0.63409 0.68664-0.78163 0.72054-2.1999 0.50537zm13.171-60.849c-0.53718-2.1403-0.75966-2.3646-2.8026-2.826-1.0572-0.23875-1.9769-0.37932-2.0439-0.3124-0.06693 0.06693 0.41868 0.75419 1.0791 1.5273 0.78063 0.91374 1.6017 1.5594 2.3465 1.8453 1.5529 0.59613 1.6263 0.58403 1.4209-0.2342zm105.34 54.798c-3.2787-1.4099-11.537-3.4553-22.141-5.4838-3.5937-0.68746-4.6072-0.96992-4.5273-1.2618 0.30409-1.1109 0.32781-7.8923 0.03398-9.715-0.44902-2.7854-1.6234-6.2649-3.0409-9.0094l-1.1837-2.2919 0.9435-2.9091c0.51892-1.6 1.7597-6.1074 2.7572-10.017 0.99753-3.9091 1.8499-7.1422 1.8941-7.1846 0.16728-0.16053 11.353-1.2468 11.484-1.1153 0.07583 0.07582-1.2868 4.1093-3.028 8.9632-1.7412 4.854-3.4385 9.6113-3.7718 10.572l-0.60594 1.7466 1.3978 3.4128c0.76877 1.877 1.5361 3.5505 1.7052 3.7189 0.16908 0.16832 1.7857 0.91383 3.5925 1.6567l3.2851 1.3506 5.1186-2.8982 1.4957-4.8378c0.82266-2.6608 2.3148-7.6358 3.3158-11.056l1.8201-6.2177 4.6846-0.35459c2.5765-0.19502 4.7292-0.30998 4.7837-0.25546 0.05452 0.05452-1.6409 5.5718-3.7676 12.261l-3.8667 12.161 0.63852 2.5138 0.63852 2.5138 5.5418 2.1947 2.5984-1.3039c1.4291-0.71716 2.6409-1.4491 2.6928-1.6265 0.05197-0.17742 0.63638-2.3466 1.2987-4.8205 1.507-5.629 4.922-17.138 5.1559-17.376 0.09619-0.09798 1.6036-0.36622 3.3499-0.59608 1.7462-0.22987 3.5548-0.48118 4.0191-0.55848l0.84408-0.14054-1.3107 3.9116c-0.72089 2.1514-2.512 7.821-3.9802 12.599l-2.6695 8.6874 0.72608 2.0282c0.39934 1.1155 0.82915 2.1421 0.95513 2.2813 0.14165 0.15654 1.2316-0.24015 2.8563-1.0395l2.6273-1.2927 1.8481-4.7813c1.0165-2.6297 2.7087-7.103 3.7604-9.9407 1.0518-2.8377 2.0687-5.2883 2.2599-5.4459 0.19117-0.15761 1.3847-0.4479 2.6522-0.64508l2.3046-0.35852 2.9307 1.0114c1.6119 0.55625 3.1688 1.1631 3.4599 1.3486 0.29104 0.18546 0.80647 0.99091 1.1454 1.7899l0.61625 1.4527-1.0447 1.6803c-1.572 2.5283-2.9647 4.9841-6.1705 10.881-1.6003 2.9434-3.0519 5.4811-3.2259 5.6392-0.17399 0.15813-1.626 0.79893-3.2268 1.424-1.6007 0.62507-4.5761 1.8947-6.612 2.8213-2.0359 0.92667-3.8487 1.6848-4.0285 1.6848-0.65692 0-8.1535-2.4269-8.4333-2.7302-0.1586-0.17189-0.50591-0.90784-0.77178-1.6354-0.26587-0.7276-0.64359-1.7096-0.83936-2.1821l-0.35595-0.85919-5.3475 3.5604 0.25384 3.5478-1.0879 0.18169c-1.5591 0.26037-3.4659 1.0571-5.0561 2.1126-0.75807 0.50317-1.485 0.90998-1.6155 0.904-0.13046-6e-3 -0.92964-0.30863-1.776-0.67256zm-42.25-42.756c-0.65484-0.14067-3.9291-0.83025-7.276-1.5324-3.347-0.70214-8.7336-1.9047-11.97-2.6725l-5.8848-1.3958-2.2255-3.5971c-1.224-1.9784-2.4458-3.8691-2.715-4.2016l-0.48949-0.60449-4.9431 2.2515-0.43804-0.55438c-0.24092-0.30491-2.2904-2.8589-4.5543-5.6755-2.2639-2.8166-4.8108-6.0469-5.6596-7.1785-0.84884-1.1316-1.5855-2.0153-1.6369-1.9638-0.05147 0.05147 1.6833 3.7738 3.8549 8.2718 2.1717 4.498 3.9134 8.2133 3.8706 8.2562-0.17243 0.17243-8.9309-3.2048-9.0241-3.4797-0.05516-0.16271-0.28707-1.7841-0.51536-3.6031-0.60828-4.8468-1.9234-13.236-2.6082-16.639l-0.59672-2.9648 17.286 17.28 1.8217-1.3247c2.4185-1.7587 8.9341-5.9258 14.654-9.3721 8.928-5.3792 28.45-16.349 29.095-16.349 0.18712 0 2.1786 0.96447 4.4256 2.1433 2.2469 1.1788 4.1402 2.0884 4.2073 2.0213 0.1327-0.1327-6.3445-9.1848-8.5719-11.979-0.75608-0.94863-1.3747-1.7838-1.3747-1.856 0-0.1608 7.0948 5.1622 12.832 9.6276 5.4453 4.238 10.716 8.5614 10.716 8.7903 0 0.09842-0.74414 0.38633-1.6536 0.6398-2.6791 0.74664-17.928 6.2176-22.91 8.2197-1.0104 0.40601-1.6204 1.0893-5.0807 5.6915-2.1628 2.8765-4.035 5.2934-4.1603 5.3709-0.12532 0.07745-1.7281 0.40529-3.5618 0.72851l-3.334 0.58769-2.0395-0.77127c-1.8565-0.70205-2.0888-0.8722-2.5889-1.8958-0.30215-0.61846-0.6812-1.1245-0.84234-1.1245-0.22263 0-5.7905 2.19-8.5313 3.3555-0.1819 0.07736-0.33073 0.23514-0.33073 0.35062 0 0.11549 0.73081 1.4836 1.624 3.0403l1.624 2.8304 1.3525-0.14984c0.7439-0.08241 4.2696-0.34546 7.8348-0.58455 5.7451-0.38527 6.5726-0.49799 7.276-0.99114 0.43656-0.30604 3.7081-3.061 7.27-6.1221 3.562-3.0611 6.7504-5.7854 7.0854-6.054 0.33502-0.2686-2.3056 3.3928-5.8681 8.1364s-6.5763 8.8018-6.6973 9.0181c-0.16361 0.29236-1.4267 0.52199-4.9208 0.89461-2.5854 0.27571-4.7524 0.553-4.8156 0.61622-0.06321 0.06321 2.1973 1.261 5.0233 2.6617 5.6642 2.8075 8.1595 4.173 7.5534 4.1336-0.21828-0.01421-0.93266-0.14095-1.5875-0.28162zm-0.23702-24.757c1.0181-1.4916 1.7266-2.712 1.5744-2.712-0.23859 0-2.1614 0.84343-5.2137 2.287-1.3713 0.64853-1.5908 2.7057-0.43526 4.0789l0.71545 0.85026 0.75402-0.89611c0.41471-0.49286 1.587-2.1165 2.6051-3.6081z" fill="#1111f6"/>
  </g>
  <g transform="scale(1.1092 .90158)" fill="#00f" stroke-width=".19993" aria-label="Ban-DERA">
   <path d="m53.127 4.8798h5.8037q2.7499 0 4.1593 0.42868 1.4233 0.42868 2.2938 1.7424 0.87056 1.2999 0.87056 4.2038 0 1.9636-0.62183 2.738-0.60801 0.77438-2.4182 1.1892 2.0175 0.45634 2.736 1.5211 0.71856 1.051 0.71856 3.2358v2.0742q0 2.2678-0.5251 3.3603-0.51128 1.0924-1.6444 1.4935t-4.643 0.40102h-6.7295zm5.8175 3.8304v4.9782q0.3731-0.01383 0.58037-0.01383 0.85674 0 1.0917-0.41485 0.23491-0.42868 0.23491-2.42 0-1.051-0.19346-1.4658-0.19346-0.42868-0.51128-0.5393-0.304-0.11063-1.2022-0.12445zm0 8.4629v6.2642q1.2298-0.04148 1.5615-0.38719 0.34546-0.34571 0.34546-1.7009v-2.0881q0-1.4381-0.304-1.7424-0.304-0.30422-1.6029-0.34571z"/>
   <path d="m73.579 16.025h-5.2372v-1.2307q0-2.1296 0.48364-3.2773 0.49746-1.1616 1.976-2.0466 1.4786-0.88501 3.8415-0.88501 2.8328 0 4.2699 1.0095 1.4371 0.99564 1.7273 2.4614 0.29019 1.452 0.29019 6.0015v9.2097h-5.4306v-1.6317q-0.51128 0.98181-1.3266 1.4796-0.80146 0.48399-1.9208 0.48399-1.4647 0-2.6946-0.81587-1.216-0.8297-1.216-3.6092v-1.5073q0-2.0604 0.64946-2.8071 0.64946-0.74673 3.2197-1.7424 2.7499-1.0786 2.9433-1.452 0.19346-0.37336 0.19346-1.5211 0-1.4381-0.22109-1.8668-0.20728-0.44251-0.70474-0.44251-0.56655 0-0.70474 0.37336-0.13818 0.35954-0.13818 1.8945zm1.7688 2.5168q-1.3404 0.98181-1.5615 1.6456-0.20728 0.66376-0.20728 1.9083 0 1.4243 0.17964 1.8392 0.19346 0.41485 0.74619 0.41485 0.5251 0 0.6771-0.31805 0.16582-0.33188 0.16582-1.7147z"/>
   <path d="m88.53 8.9177-0.09673 1.6871q0.60801-1.0095 1.4786-1.5073 0.88438-0.51165 2.0313-0.51165 1.4371 0 2.3491 0.67759 0.91201 0.67759 1.1746 1.7147 0.26255 1.0233 0.26255 3.4294v12.86h-5.5826v-12.708q0-1.8945-0.12437-2.3093-0.12436-0.41485-0.69092-0.41485-0.59419 0-0.74619 0.48399-0.152 0.47016-0.152 2.5444v12.404h-5.5826v-18.35z"/>
   <path d="m104.49 16.164v3.8581h-7.3375v-3.8581z"/>
   <path d="m106.15 4.8798h4.3528q4.2146 0 5.6932 0.38719 1.4924 0.38719 2.2662 1.2722 0.77384 0.88501 0.96729 1.9774 0.19346 1.0786 0.19346 4.2591v7.8407q0 3.0146-0.29019 4.0379-0.27636 1.0095-0.9811 1.5903-0.70473 0.56696-1.7411 0.80204-1.0364 0.22125-3.123 0.22125h-7.3376zm5.8175 3.8304v14.727q1.2575 0 1.5476-0.49782 0.2902-0.51165 0.2902-2.7518v-8.698q0-1.5211-0.0967-1.9498-0.0967-0.42868-0.4422-0.62227-0.34545-0.20742-1.2989-0.20742z"/>
   <path d="m121.79 4.8798h9.7005v4.4804h-3.883v4.2453h3.6342v4.2591h-3.6342v4.9229h4.2699v4.4804h-10.087z"/>
   <path d="m133.55 4.8798h4.1179q4.1179 0 5.5688 0.31805 1.4647 0.31805 2.3768 1.6317 0.92583 1.2999 0.92583 4.1623 0 2.6136-0.64946 3.5124-0.64947 0.89884-2.5564 1.0786 1.7273 0.42868 2.3215 1.1478 0.5942 0.71907 0.73238 1.3275 0.152 0.59462 0.152 3.305v5.9047h-5.403v-7.4396q0-1.7977-0.29019-2.2264-0.27636-0.42868-1.4786-0.42868v10.095h-5.8175zm5.8175 3.8304v4.9782q0.9811 0 1.368-0.26274 0.40073-0.27657 0.40073-1.7562v-1.2307q0-1.0648-0.38691-1.3967-0.37311-0.33188-1.3818-0.33188z"/>
   <path d="m158.84 4.8798 3.3302 22.388h-5.9557l-0.29019-4.024h-2.0866l-0.34545 4.024h-6.0248l2.9571-22.388zm-3.0815 14.395q-0.44218-3.8028-0.88437-9.3894-0.88438 6.4163-1.1055 9.3894z"/>
  </g>
 </g>
</svg>
