<?xml version="1.0" encoding="UTF-8"?>
<svg version="1.1" viewBox="0 0 500 500" xmlns="http://www.w3.org/2000/svg">
 <line x1="376.3" x2="24.69" y1="434.78" y2="23.49" style="fill:none;stroke-linecap:round;stroke-linejoin:round;stroke-width:5px;stroke:#263238"/>
 <path d="m248.73 138.18s3.09 8.65 11.74 0.62 33.35-10.5 33.35-10.5-23.47-13-34-36.44-11.09-38.86-11.09-38.86-14.2 8.64-25.32 8a55.91 55.91 0 0 1-19.76-5l29.64 47s16.06 18.5 15.44 35.18z" style="fill:#ffd500;stroke-linecap:round;stroke-linejoin:round;stroke:#263238"/>
 <path d="m246.88 113.47s6.8-2.47 6.18 6.18-4.33 18.53-4.33 18.53l-9.88-23.47s4.33-3.71 8.03-1.24z" style="fill:#263238;stroke-linecap:round;stroke-linejoin:round;stroke:#263238"/>
 <path d="m249.35 112.24-29.95-49c-7.13-11.65-19.84-17-30.19-25.14-11-8.55-19.65-19.83-33.74-23.47-19.14-4.92-39.47 9.29-66.08 16.08s-55 3.09-55 3.09c47.61 37.68 91.44 105.61 91.44 105.61s18.53-24.08 44.47-33.35 38.91 24.09 51.26 19.15c11.47-4.59 19.21-11.29 28.66-12.23z" style="fill:#ffd500;stroke-linecap:round;stroke-linejoin:round;stroke:#263238"/>
 <path d="m224.18 71.984-6.1276-9.9541c-12.836-15.632-17.852-13.972-31.752-25.605-9.4006-8.2609-20.792-20.837-36.147-22.242-17.149-2.3094-41.129 13.463-66.488 18.167-23.651 4.3873-47.616 2.2013-47.616 2.2013 26.899 21.188 55.994 58.075 55.994 58.075s31.772-22.984 55.014-27.335c23.242-4.3513 33.422 11.035 51.996 11.719 10.491-0.0092 16.432-0.48903 29.147 1.8003z" style="fill:#005bbb"/>
 <path d="m38 36s9 6 19.5 7" style="fill:none;stroke-linecap:round;stroke-linejoin:round;stroke:#263238"/>
 <path d="m47 38.5s13 2.5 24.5 2" style="fill:none;stroke-linecap:round;stroke-linejoin:round;stroke:#263238"/>
 <path d="m125.83 139.41s-1.33-13.41 0.67-22.91" style="fill:none;stroke-linecap:round;stroke-linejoin:round;stroke:#263238"/>
 <line x1="123" x2="120" y1="129" y2="110" style="fill:none;stroke-linecap:round;stroke-linejoin:round;stroke:#263238"/>
 <path d="m128 130.5s3-6 5-8" style="fill:none;stroke-linecap:round;stroke-linejoin:round;stroke:#263238"/>
 <path d="m248.28 53.844c-10.921 6.0003-19.198 8.4821-29.7 7.1647 7.0017 11.431 21.707 35.776 21.707 35.776s11.665 0.68094 19.186-4.4713c-3.2496-9.5515-8.8752-18.552-11.193-38.469z" style="fill:#005bbb"/>
 <path d="m397.77 304.05-7-2.15-2.94 4s-11.83-5.61-18.83-10.7-8.9-8.59-8.9-8.59 0.06-1.05 5.95-1.05 23.3 8 26.79 11a18.07 18.07 0 0 1 4.93 7.49z" style="fill:#263238;stroke-linecap:round;stroke-linejoin:round;stroke:#263238"/>
 <path d="m360.14 286.61s3.49-15.63 14.5-19 28 7.71 26 19.27c-1.94 11.15-3.76 13.8-3.46 14.72s0.62 2.45 0.62 2.45-27.57-16.83-37.66-17.44z" style="fill:#fff;stroke-linecap:round;stroke-linejoin:round;stroke:#263238"/>
 <path d="m398.5 318.5s-0.27 9.64-0.54 16.07-1.6 24.64-3.21 28.12-3.48 8.3-3.48 8.3l-16.6-1.33a104.45 104.45 0 0 1 1.6-15c1.34-6.43 0.81-15.53 0.81-15.53s17.4-17.41 21.42-20.63z" style="fill:#263238;stroke-linecap:round;stroke-linejoin:round;stroke:#263238"/>
 <path d="m344.4 425.09s-3.16 10.65-3.7 13.11 7.11 7.11 11.76 7.11 9-1.64 9.85-3 3.83-1.91 6-4.1 3.83-6.84 1.64-10.4-4.37-1.91-8.75-1.91-16.8-0.81-16.8-0.81z" style="fill:#263238;stroke-linecap:round;stroke-linejoin:round;stroke:#263238"/>
 <path d="m308.78 339.39a204.26 204.26 0 0 0-16.87 18.75c-7 9.11-20.62 34.28-21.69 34.28s-2.68 4-2.68 4-11 5.62-15.27 12.32-19.27 39.12-19.27 39.12l-2.41 3.75 19.55 0.8s9.91-20.62 19.55-28.92 15.27-12.32 18.21-15 6.7-2.95 11.79-8 15.53-21.69 16.33-21.69 6.7 8.57 20.63 13.12 24.35 2.37 24.35 2.37-10.45 17.14-12.86 22a75.67 75.67 0 0 0-3.75 8.83l19.61 5.6s7.5-15.27 12.32-20.89 15-17.41 17.68-22 6.69-12.59 5.89-15.8-4.82-7.77-9.37-9.38-17.14-0.8-21.16-0.8-13.98-1.85-13.98-1.85a55.46 55.46 0 0 0-18.21-12.31c-11.78-5.08-24.64-9.9-28.39-8.3z" style="fill:#fff;stroke-linecap:round;stroke-linejoin:round;stroke:#263238"/>
 <path d="m251 449.69s-10.67-3-15.32-1.09-5.48 3-6.84 4.65-3.83 2.46-7.39 4.65-7.45 7.39-5.25 10.1 17.78 2.19 22.16 0.82 5.48-5.74 7.12-6.84 5.2-1.36 6.29-4.37 1.92-6.82-0.77-7.92z" style="fill:#263238;stroke-linecap:round;stroke-linejoin:round;stroke:#263238"/>
 <path d="m308.78 339.39a204.26 204.26 0 0 0-16.87 18.75c-7 9.11-20.62 34.28-21.69 34.28s-2.68 4-2.68 4-11 5.62-15.27 12.32c-1 1.51-2.48 4.34-4.25 7.81l0.77-0.85c2.68-3 5.9-7 9.64-8.84s6.16-0.53 9.91-0.53-4-3.49-1.87-3.75 15.53 2.42 19.82 2.16-8.31-2.41-9.11-2.95 9.64 0.81 16.34 1.07a31.37 31.37 0 0 0 3.5-0.06 27.9 27.9 0 0 0 2.66-2.35c5.09-5.08 15.53-21.69 16.33-21.69s6.7 8.57 20.63 13.12 24.36 2.41 24.36 2.41-10.45 17.14-12.86 22a75.67 75.67 0 0 0-3.75 8.83l1.27 0.37c4-3 10.78-8.4 10.78-8.4s1.34 3.48 3.49 4 2.41-8.84 2.41-11 6.16 9.9 6.42 3.74-3.48-12.58-1.6-16.33 21.42-15.27 22.49-17.95-24.9 12.06-31.87 12.86-19.82-1.87-27.85-6.7-11.25-8-15.53-9.37a22.81 22.81 0 0 1-10.18-5.62c-4-3.48-3.48-8.84-2.68-16.88s7.24-14.45 7.24-14.45z" style="fill:#263238;stroke-linecap:round;stroke-linejoin:round;stroke:#263238"/>
 <path d="m355.38 362.69a87.77 87.77 0 0 1 1.49 8.81" style="fill:none;stroke-linecap:round;stroke-linejoin:round;stroke:#263238"/>
 <path d="m357.58 363.3s2.85 6.77 3.57 7.84" style="fill:none;stroke-linecap:round;stroke-linejoin:round;stroke:#263238"/>
 <path d="m253.14 413.2a58.06 58.06 0 0 1 20-1.07" style="fill:none;stroke-linecap:round;stroke-linejoin:round;stroke:#263238"/>
 <path d="m267 407.86s7.48 0.35 12.47 1.07" style="fill:none;stroke-linecap:round;stroke-linejoin:round;stroke:#263238"/>
 <line x1="325.14" x2="326.92" y1="348.33" y2="353.67" style="fill:none;stroke-linecap:round;stroke-linejoin:round;stroke:#263238"/>
 <line x1="327.99" x2="329.42" y1="348.33" y2="357.95" style="fill:none;stroke-linecap:round;stroke-linejoin:round;stroke:#263238"/>
 <path d="m381.11 386.47s9.62-2.14 13.54-4.64" style="fill:none;stroke-linecap:round;stroke-linejoin:round;stroke:#263238"/>
 <path d="m377.54 388.25s8.2 0.36 11-0.36" style="fill:none;stroke-linecap:round;stroke-linejoin:round;stroke:#263238"/>
 <path d="m392.88 308.59-14.47-10.17s0.07-4.26-9.1-8-12.31-4.86-12.31-4.86-10.45-5.89-14.46-7-5.63-0.8-8.3 0-30.8 6.16-33.48 9.11-23.84 31.6-23.84 31.6-0.8-1.07-3.21 0-1.61 4.82-1.34 7 2.68 2.41 3.75 3a16.93 16.93 0 0 1 3.75 2.14c0.8 0.8 2.68 1.61 3.48 0.27a27.12 27.12 0 0 0 1.61-3.49s5.09-5.62 6.43-6.15 7-8 9.37-9.11a46.11 46.11 0 0 0 8.84-5.62c1.34-1.34 3.21-3.75 3.21-3.75s2.41 0.53 3.48-0.54 0.27-1.87 1.61-2.14 9.64-2.68 9.64-2.68l1.87-1.07s-11 24.64-12.58 27.85-6.16 6.43-7.5 9.37a7.1 7.1 0 0 0-0.54 5.09s14.47 2.95 25.45 9.38 19.55 13.39 21.15 13.92 5.09-2.41 5.63-4 11-14.73 12.58-16.07 5.9-5.09 5.9-5.09 15.26-13.93 17.4-16.07 2.1-8.9-4.02-12.92z" style="fill:#fff;stroke-linecap:round;stroke-linejoin:round;stroke:#263238"/>
 <path d="m276.91 319.31s-0.8-1.07-3.21 0-1.61 4.82-1.34 7 2.68 2.41 3.75 3a16.93 16.93 0 0 1 3.75 2.14c0.8 0.8 2.68 1.61 3.48 0.27a27.12 27.12 0 0 0 1.61-3.49s5.09-5.62 6.43-6.15 7-8 9.37-9.11a46.11 46.11 0 0 0 8.84-5.62c1.34-1.34 3.21-3.75 3.21-3.75s2.41 0.53 3.48-0.54 0.27-1.87 1.61-2.14 9.64-2.68 9.64-2.68l1.87-1.07s0.81-1.61 1.61-3.75-8.3 3.75-8.3 3.75 0-1.34 2.14-4.82-9.1 7.5-9.1 7.5-2.15-0.81-4-1.34 0.53 2.68 0.53 2.68-5.62 1.33-9.9-2.15-1.61-11.24-1.61-11.24c-2.7 2.85-23.86 31.51-23.86 31.51z" style="fill:#263238;stroke-linecap:round;stroke-linejoin:round;stroke:#263238"/>
 <path d="m343.33 300.29s17.41-2.41 25.18-2.41" style="fill:none;stroke-linecap:round;stroke-linejoin:round;stroke:#263238"/>
 <path d="m343.87 305a102.66 102.66 0 0 1 13.92-2.79" style="fill:none;stroke-linecap:round;stroke-linejoin:round;stroke:#263238"/>
 <path d="m338.51 306.45s1-0.29 2.51-0.72" style="fill:none;stroke-linecap:round;stroke-linejoin:round;stroke:#263238"/>
 <path d="m396.89 321.45c1.42-1.42 1.89-4.85 0.25-8.16-0.12 0.95-1 7-3.73 9.23-2.94 2.41-11 3-12.32 4.29s1.61 1.87 0 3.75-8 9.1-9.64 9.64-0.27-22-1.87-13.93-3.22 15.8-4.82 17.68-3.75-7.77-3.75-1.88 0.53 15.53 0 16.61c0.53-1.61 11-14.73 12.58-16.07s5.9-5.09 5.9-5.09 15.26-13.93 17.4-16.07z" style="fill:#263238;stroke-linecap:round;stroke-linejoin:round;stroke:#263238"/>
 <path d="m308.78 339.39s10.3 5.37 23.14 11.79 23.46 11.51 23.46 11.51-11.34-11.15-24.53-16.5-22.07-6.8-22.07-6.8z" style="fill:#263238;stroke-linecap:round;stroke-linejoin:round;stroke:#263238"/>
 <line x1="331.01" x2="331.92" y1="293.33" y2="284.88" style="fill:none;stroke-linecap:round;stroke-linejoin:round;stroke:#263238"/>
 <line x1="325.86" x2="346.17" y1="336.92" y2="355.81" style="fill:none;stroke-linecap:round;stroke-linejoin:round;stroke:#263238"/>
 <path d="m105.32 234a5.71 5.71 0 0 0-0.61-2.81c-2.28-4-7.23-12.49-3.54-20.26 4.86-10.19 24.1-15.14 31.13-6 6.78 8.78 7.5 11.85 8.36 12.24a24.46 24.46 0 0 1 2.18 1.17s-30.4 8.78-37.52 15.66z" style="fill:#fff;stroke-linecap:round;stroke-linejoin:round;stroke:#263238"/>
 <path d="m106.51 431.77c-0.32 1-9.38 8.66-9.52 10s5 6.79 7 8.4 5.48 1.94 3.54 4.51-4.19 2.91-10 2.91-10-1.94-14.83-6.45-15.15-10.32-15.15-15.8 10-9.34 13.54-11.92 11-9.67 11-9.67z" style="fill:#263238;stroke-linecap:round;stroke-linejoin:round;stroke:#263238"/>
 <polygon points="127.89 397.47 108.68 436.73 93.92 429.49" style="fill:#263238;stroke-linecap:round;stroke-linejoin:round;stroke:#263238"/>
 <path d="m80.84 411.39s-14.2 8.91-14.2 10.61a10.44 10.44 0 0 0 3.06 6.41c2 1.95 5.29 3.62 6.13 4.45a20.44 20.44 0 0 0 8.91 6.4c6.12 2.51 7.79 2.79 12.25 2.51s7-5.57 5.84-7-5-2.23-7-6.13-13.6-17.81-14.99-17.25z" style="fill:#263238;stroke-linecap:round;stroke-linejoin:round;stroke:#263238"/>
 <path d="m134.61 313.87s-0.59 1.19-3.38 1.19h-3.62s0.56 4.73-0.55 5.84a21.61 21.61 0 0 0-2.23 2.79s7 14.47 10 23.38 10.58 31.47 10.31 34.53-1.95 3.62-3.07 4.73l-43.69 44.27s-4.73 1.12-9.47-6.68a84.19 84.19 0 0 0-9.46-12.81s17-14.47 20.6-17.82 2.51-4.17 2.51-4.17v-11.42s-18.66-42.88-20-47.33-2.51-9.19-1.39-13.64a93.67 93.67 0 0 1 3.34-10s7.79-6.68 16.7-6.68 17.27-1.39 24 2.51 9.4 11.31 9.4 11.31z" style="fill:#fff;stroke-linecap:round;stroke-linejoin:round;stroke:#263238"/>
 <path d="m143.13 245 7.28 4.34s29.7-10.5 32.7-13.51 8.8-2.19 8.8-2.19l2-5.35-0.33-6s3.67-2.34 4.67-2.34 3.68 3.68 4.35 5.35 1.33 0.33 1 3.34 0.33 4.68-1 6-4 2-5 3l-3.67 3.67a16.74 16.74 0 0 1-2 6.35c-1.81 3.31-4.67 4.68-7.68 6.69s-18.71 12.36-20.72 14-5 1.48-8.33 2.81-11.11 2.13-13.11 0.8a28 28 0 0 1-4.62-4.61z" style="fill:#263238;stroke-linecap:round;stroke-linejoin:round;stroke:#263238"/>
 <path d="m172 193.58s-1-2.54-4.74-2.85a29.38 29.38 0 0 0-6 0s-1.58 6-2.22 7.28-2.84 3.48-3.48 5.38-4.43 16.14-4.43 16.14-19 0-22.79 0.95-8.55 3.8-9.81 5.38-5.15 1.14-13.21 8.14-10.91 8.31-12.49 12.74-2.22 13.29-2.22 15.82-1.9 26.6-2.53 27.86-6.33 11.71-6.65 13.3 2.53 4.11 3.48 4.74 6.33-6.33 18-6 21.2 3.48 24.69 6 7 5.39 7 5.39 1.58-4.44 2.85-15.2 4.43-26 7.6-34.82a65.56 65.56 0 0 0 3.48-17.41s14.25-7.26 17.47-10.42 3.8-13.29 3.8-16.46 0.65-14.58 0.95-16.77c1-7 0-2.22 0-2.22z" style="fill:#fff;stroke-linecap:round;stroke-linejoin:round;stroke:#263238"/>
 <path d="m171.64 200.54s-3.73-4.55-7.72-3.54" style="fill:none;stroke-linecap:round;stroke-linejoin:round;stroke:#263238"/>
 <line x1="148.54" x2="132.74" y1="246.44" y2="256.86" style="fill:none;stroke-linecap:round;stroke-linejoin:round;stroke:#263238"/>
 <line x1="144.71" x2="129.68" y1="249.62" y2="264.94" style="fill:none;stroke-linecap:round;stroke-linejoin:round;stroke:#263238"/>
 <path d="m165.32 178.7a6.06 6.06 0 0 0-3.17-1.27c-1.58 0-2.22 3.48-2.22 3.48l-2.16 2.37a3.9 3.9 0 0 0-1 3.34v0a4 4 0 0 0 1.45 2.39 5.3 5.3 0 0 1 1.05 1.07 10.43 10.43 0 0 1 0.95 3.17l10.45 1.9s3.16-2.85 3.48-5.7 1.27-6-0.63-6.33-2.85-1.58-4.12-3.16-4.08-1.26-4.08-1.26z" style="fill:#fff;stroke-linecap:round;stroke-linejoin:round;stroke:#263238"/>
 <path d="m151.07 219.53s11.91-2.2 14.69 0.58 1.67 5 1.67 5" style="fill:none;stroke-linecap:round;stroke-linejoin:round;stroke:#263238"/>
 <path d="m153.79 217.05s9.46-3.62 13.64-0.56" style="fill:none;stroke-linecap:round;stroke-linejoin:round;stroke:#263238"/>
 <path d="m126.22 223.45 0.74-2.57a23.32 23.32 0 0 0-2.52 1l-3 2.39-2.23 0.79a6.5 6.5 0 0 0-0.79 0.78c-1.27 1.59-5.09 1.12-13.15 8.16s-10.91 8.31-12.49 12.74-2.22 13.29-2.22 15.82-1.9 26.6-2.53 27.86-6.33 11.71-6.65 13.3a3.2 3.2 0 0 0 0.9 2.28 11.9 11.9 0 0 1-0.1-1.27c0-1.67 8.91-7.24 13.09-11.41a93.85 93.85 0 0 0 11.41-15c2-3.34-7.79 8.91-12 12.25s7.52-16.42 12-23.11 11.7-16.42 17.54-25.61-11.36 14.46-12.22 14.46 3.34-10.58 3.34-12.25-0.27-6.41 0-9.75 10.88-10.86 10.88-10.86z" style="fill:#263238;stroke-linecap:round;stroke-linejoin:round;stroke:#263238"/>
 <path d="m127.61 381.88c-5 0-10-2.51-7.51-1.95s7.24-1.11 5.57-1.95-8.91-2-13.09-6.13-13.64-26.72-13.64-26.72a9.46 9.46 0 0 0 3.62 1.39c1.39 0-6.69-7.52-8.64-10.86s-4.45-13.37 3.08-17.82 21.44-3.9 21.44-3.9l-3.34 1.67s7.79 2.23 7.23 3.06-5.84 0.84-9.18 3.9 7.24 0 9.18 0a2.66 2.66 0 0 1 2.51 1.12 21.61 21.61 0 0 1 2.23-2.79c1.11-1.11 0.55-5.84 0.55-5.84h3.62c2.79 0 3.38-1.19 3.38-1.19s-2.82-7.45-9.5-11.34-15-2.51-24-2.51-16.7 6.68-16.7 6.68a93.67 93.67 0 0 0-3.34 10c-1.12 4.45 0 9.18 1.39 13.64s20 47.33 20 47.33v11.42s0.57 0.44-0.48 2l12.17-9.2a28.62 28.62 0 0 0 7 2.5c3.9 0.84 10-0.55 13.64-2.22s-2.17-0.29-7.19-0.29z" style="fill:#263238;stroke-linecap:round;stroke-linejoin:round;stroke:#263238"/>
 <path d="m122.05 388.28s6.12 4.46 15.87 0.28" style="fill:none;stroke-linecap:round;stroke-linejoin:round;stroke:#263238"/>
 <path d="m116.76 386.89s1.95 6.13 11.69 6.68" style="fill:none;stroke-linecap:round;stroke-linejoin:round;stroke:#263238"/>
 <line x1="120.34" x2="123.44" y1="400.06" y2="399.42" style="fill:none;stroke-linecap:round;stroke-linejoin:round;stroke:#263238"/>
 <line x1="85.57" x2="115.99" y1="407.22" y2="400.95" style="fill:none;stroke-linecap:round;stroke-linejoin:round;stroke:#263238"/>
 <line x1="83.9" x2="110.63" y1="410" y2="406.66" style="fill:none;stroke-linecap:round;stroke-linejoin:round;stroke:#263238"/>
 <path d="m104.25 330.53s10.22-7.07 19.25-4.32" style="fill:none;stroke-linecap:round;stroke-linejoin:round;stroke:#263238"/>
 <path d="m112.5 318.74s-6.56-0.42-12.57 8.25" style="fill:none;stroke-linecap:round;stroke-linejoin:round;stroke:#263238"/>
 <path d="m218.94 222.94c0 1.8-2.69 3.25-6 3.25s-6-1.45-6-3.25 2.68-3.25 6-3.25 6 1.45 6 3.25z" style="fill:#fff;opacity:.2"/>
 <path d="m194 240.32 3.62 2.34a49.36 49.36 0 0 1 0.84 5.57 6.85 6.85 0 0 1-1.12 3.06l-0.27 1.4s6.68 4.17 10.86 7.24a56.11 56.11 0 0 1 5.84 4.73s4.46-0.84 6.68-2.79 4.46-6.12 4.46-6.12 1.95 1.39 2.51 0.56 1.94-6.13 2.22-7.52-6.4-8.91-18.37-10.58-17.27 2.11-17.27 2.11z" style="fill:#263238;stroke-linecap:round;stroke-linejoin:round;stroke:#263238"/>
 <path d="m194 240.32a6 6 0 0 0 1.45-2.68c0.95-4.78 2.87-15 11.22-18.69 11-4.82 29.82 4.55 29.15 16.74-0.65 11.75-2.21 14.7-1.78 15.61s0.93 2.46 0.93 2.46-30.48-14.03-40.97-13.44z" style="fill:#fff;stroke-linecap:round;stroke-linejoin:round;stroke:#263238"/>
 <path d="m158.35 443.13s-6.77 6.31-7.51 9.28-1.12 3.35 1.85 5.2 19.68 10.4 23 11.14 9.28-2.23 8.54-4.83-3.34-2.23-5.57-4.45-7.05-8.54-7.42-9.65-12.89-6.69-12.89-6.69z" style="fill:#263238;stroke-linecap:round;stroke-linejoin:round;stroke:#263238"/>
 <path d="m124.94 444.8s-7.47 9.85-7.14 11.79 0.32 3.87 4.83 5.8 9 1.61 10 1.94a44.65 44.65 0 0 0 11.28 2.57c5.16 0.33 10.64-2.57 10.64-4.83s-7.1-5.16-11-7.74l-6.77-4.51-11.61-6.77" style="fill:#263238;stroke-linecap:round;stroke-linejoin:round;stroke:#263238"/>
 <path d="m195.39 320.9-1.95 10s6 7.29 16.88 29.85 13.19 38.36 11.52 42-39.84 45.67-39.84 45.67l-8.07 10s-8.91-5.57-11.7-9.75-3.9-5.57-3.9-5.57 21.72-28.4 24.51-32.57 10-14.48 10-14.48l-15.31-21.44s-1.95 25.61-5 29.79-33.13 48.73-33.13 48.73l-14.21-10.11s10.61-19.38 15.9-33.02 11.42-27.56 11.42-27.56l-5.85-22.56s-6.4-22.27-6.13-27.84 10-21.72 10-21.72 18.65 8.08 27 8.91 17.86 1.67 17.86 1.67z" style="fill:#fff;stroke-linecap:round;stroke-linejoin:round;stroke:#263238"/>
 <path d="m206.15 399.33c-7.42-4.09-14.48-12.25-14.48-12.25s14.11 4.45 16.34 3.71-20-21.16-20-21.16 4.83 3.34 8.54 5.94-17.45-23.76-17.45-23.76h8.54c2.6 0-10.4-13-14.11-14.48s1.86-7.8 1.86-7.8l-3.71-6.31-23.68-8.37c-2.91 5.2-7.23 13.51-7.42 17.19-0.27 5.57 6.13 27.84 6.13 27.84l5.85 22.56s-6.13 13.92-11.42 27.56c-2.88 7.43-7.41 17.09-10.94 24.35 3.75-2.26 7.94-4.71 10.66-6.07 5.94-3-8.16 4.46 0.37-3.34s9.66-9.28 13-10.76-1.49-1.86-8.91-1.12 8.91-7.79 20.42-14.1c5.37-2.95 8.07-3.63 9.42-3.52 1.55-8.9 2.46-20.8 2.46-20.8l15.31 21.44s-7.24 10.3-10 14.48c-1.55 2.32-9 12.12-15.21 20.37l-0.11 0.32s10.4-8.54 14.48-11.51 8.54-11.13 8.54-11.13 4.83 4.82 5.94 4.08-2.6-11.51-2.6-11.51 7 7.8 10 7.8 9.66-2.6 14.11-5.57-4.5 0-11.93-4.08z" style="fill:#263238;stroke-linecap:round;stroke-linejoin:round;stroke:#263238"/>
 <path d="m213.21 410.83s-6.69 4.83-9.66 5.2-5.57-3-5.57-3" style="fill:none;stroke-linecap:round;stroke-linejoin:round;stroke:#263238"/>
 <path d="m198.1 420.75a152.42 152.42 0 0 1-19.42 6.42" style="fill:none;stroke-linecap:round;stroke-linejoin:round;stroke:#263238"/>
 <path d="m205 417.89s-1.67 0.73-4.3 1.8" style="fill:none;stroke-linecap:round;stroke-linejoin:round;stroke:#263238"/>
 <path d="m170 436.21c7.42-1 19.61-3.49 28.33-9.78" style="fill:none;stroke-linecap:round;stroke-linejoin:round;stroke:#263238"/>
 <path d="m163.46 436.82s1 0 2.84-0.2" style="fill:none;stroke-linecap:round;stroke-linejoin:round;stroke:#263238"/>
 <path d="m193.16 433.11s-10.4 5.2-19.31 6.31" style="fill:none;stroke-linecap:round;stroke-linejoin:round;stroke:#263238"/>
 <polygon points="163.09 326.94 164.94 329.16 146.38 342.9 145.27 339.93" style="fill:#263238;stroke-linecap:round;stroke-linejoin:round;stroke:#263238"/>
 <path d="m193.44 330.93s-30.35 0.46-37.78-0.65-11.51-7.8-11.51-7.8l3.62-11s9 6.12 19.4 7 28.22 0 28.22 0z" style="fill:#263238;stroke-linecap:round;stroke-linejoin:round;stroke:#263238"/>
 <path d="m159.75 327.31s-10-6.69-11.88-7.43-2.23 1.11-3.34 4.08a7.54 7.54 0 0 0 1.85 8.54c2.6 2.6 6.68 4.46 9.65 4.46s5.57-5.2 3.72-9.65z" style="fill:#fff;stroke-linecap:round;stroke-linejoin:round;stroke:#263238"/>
 <path d="m146.38 320.25s3.34 7.8 6.31 8.91 7.06-0.37 7.06-0.37" style="fill:none;stroke-linecap:round;stroke-linejoin:round;stroke:#263238"/>
 <path d="m142.3 329.9-3.3 1.1s1.11 18.93 3 23.39 10 1.48 10-3.34-9.7-21.15-9.7-21.15z" style="fill:#fff;stroke-linecap:round;stroke-linejoin:round;stroke:#263238"/>
 <line x1="145.64" x2="140.07" y1="336.22" y2="338.07" style="fill:#fff;stroke-linecap:round;stroke-linejoin:round;stroke:#263238"/>
 <line x1="140.07" x2="147.5" y1="343.27" y2="341.04" style="fill:#fff;stroke-linecap:round;stroke-linejoin:round;stroke:#263238"/>
 <path d="m218.5 266.61s-3.9-5.85-12.5-10.61-12.53-5.29-15.87-5a11.52 11.52 0 0 0-5.57 1.95s20 8.07 24.5 10.58 8.91 4.45 8.91 4.45z" style="fill:#fff;stroke-linecap:round;stroke-linejoin:round;stroke:#263238"/>
 <path d="m254.76 296.5s6.82-4.09 7.85-4.09 3.07 1.7 3.07 2.72a6.71 6.71 0 0 0 0.68 2.39s2.72 3.75 3.07 5.12-1.71 4.43-1.71 4.43-3.41 1.36-5.45 2-6.14-4.09-6.14-4.09z" style="fill:#fff;stroke-linecap:round;stroke-linejoin:round;stroke:#263238"/>
 <path d="m184.53 253s-8.36 0.27-10.86 1.11-6.41 6.12-8.35 10.58-0.84 8.35-1.95 11.14-7 20-10.31 25.05-6.4 8.64-5.29 10.59 2.51 4.45 4.46 4.45 7 0.84 8.63 1.95 10 5.29 12.81 5.29h18.33s4.18 0 5.29-1.95 16.71-23.42 16.71-23.42 24.78 13.65 27.29 13.92a18.49 18.49 0 0 0 7.51-1.11c1.12-0.56 13.09-5.29 13.93-6.68a4.16 4.16 0 0 0 0-5 4.88 4.88 0 0 0-4.18-2.23c-1.11 0-4.73-2.23-7.24-2.79s-8.91-1.11-8.91-1.11-4.18-5.29-7.24-8.63-8.35-7.52-10.3-10.3-5.85-5.57-8.63-7.8-21.68-11.42-31.7-13.06z" style="fill:#fff;stroke-linecap:round;stroke-linejoin:round;stroke:#263238"/>
 <path d="m241.33 311.71a15.91 15.91 0 0 0 4.19-0.23c-3.45-3.09-10.68-8.22-13.94-12.3s-14.48-12.25-14.48-12.25l15.32 6.13s-9.75-5.29-15.32-7.52-3.89 0.56-3.89 0.56-9.47-9.47-7.8-5.85 7.8 11.7 7.8 11.7-3.62 2.5-8.64 11.41-6.12 17.54-9.18 17.54-11.7 1.12-16.43 0.56-11.42-3.9-15.59-3.06c-0.37 0.07-0.74 0.16-1.12 0.25 3 1.61 9.11 4.48 11.42 4.48h18.33s4.18 0 5.29-1.95 16.71-23.39 16.71-23.39 24.82 13.65 27.33 13.92z" style="fill:#263238;stroke-linecap:round;stroke-linejoin:round;stroke:#263238"/>
 <path d="m184.53 290.55c-2.51-2.22-8.63-17-10-20s-2.5 9.46-4.17 7-4.18-4.74-5.57-7c-0.94-1.51 0.91-6.19 2.22-9.07a29 29 0 0 0-1.66 3.22c-1.95 4.45-0.84 8.35-1.95 11.14s-7 20-10.31 25.05-6.4 8.64-5.29 10.59l0.71 1.21a13.47 13.47 0 0 1 2.08-1.21c5.29-2.51 21.16-1.95 29.23-3.9s-11.13-4.74-5.29-7.24 14.76-5.29 18.1-7-5.63-0.56-8.1-2.79z" style="fill:#263238;stroke-linecap:round;stroke-linejoin:round;stroke:#263238"/>
 <line x1="213.21" x2="196.78" y1="291.95" y2="281.36" style="fill:none;stroke-linecap:round;stroke-linejoin:round;stroke:#263238"/>
 <path d="m200.4 259.93s-7 1.67-15.32 4.45" style="fill:none;stroke-linecap:round;stroke-linejoin:round;stroke:#263238"/>
 <path d="m188.15 260.48c-0.84 0.28-7 3.9-9.19 7.24" style="fill:none;stroke-linecap:round;stroke-linejoin:round;stroke:#263238"/>
 <polyline points="248.01 300.86 242.44 292.78 251.07 298.91" style="fill:none;stroke-linecap:round;stroke-linejoin:round;stroke:#263238"/>
 <path d="m152.23 315.89s24.78-4.18 17.82-1.39-7.8 4.15-7.8 4.15a71.18 71.18 0 0 0-10.02-2.76z" style="fill:#263238;stroke-linecap:round;stroke-linejoin:round;stroke:#263238"/>
 <path d="m26.1 478.77 18.9-18.37 11.14-20.61 17.26-0.56 6.13-3.34 11.72-8.89 16.15 2.23 57.67 31.94 15.13-2.61 3.49-14.29 12.81-6.69 31.18 11.42 12.81-6.4 29 12.25 3.34-5.57s10-9.47 11.69-9.47 52.91 20 52.91 20l-3.43-8.88v-15.59l-7.24-9.47 6.13-12.81 46.78 12.25 9.46-5.57 37.31 24.51 2.79 12.8 22.27 5.57 24.5 21.16" style="fill:#fff;stroke-linecap:round;stroke-linejoin:round;stroke:#263238"/>
 <path d="m272.79 449.26-3.34 5.57-4-1.7-6.58 8.22 11.91 4.21 11.21 3.5 7.71-4.2s-5.61-7.71-5.61-10.51 0.41-14.56 0.41-14.56c-1.69 0-11.71 9.47-11.71 9.47z" style="fill:#263238;stroke-linecap:round;stroke-linejoin:round;stroke:#263238"/>
 <path d="m78.76 464.86 29.43-1.4 1.4-16.12-16.82 2.8-4.2-7 2.8-14-2.54-0.29-9.27 7.06-6.13 3.34-17.26 0.56-11.17 20.59-7.91 7.68 11.54-8.08 6.6 19.15h2.14z" style="fill:#263238;stroke-linecap:round;stroke-linejoin:round;stroke:#263238"/>
 <polygon points="246.68 445.19 240.49 442.58 227.68 448.98 206.62 441.27 204.89 447.34 228.01 463.46 237.82 459.95" style="fill:#263238;stroke-linecap:round;stroke-linejoin:round;stroke:#263238"/>
 <polygon points="137.68 445.98 162.15 469.76 183.87 468.36 183.69 444.25 180.2 458.54 165.07 461.14" style="fill:#263238;stroke-linecap:round;stroke-linejoin:round;stroke:#263238"/>
 <path d="m334 435.34v15.59l3.35 8.91s-27.48-10.75-42.84-16.51l4.94 15.92 64.55 13.32 11.92-10.51-22.43-14.72-5.6-11.91 12.61-2.81-18.22-2.1-9.3-17.46-6.13 12.81z" style="fill:#263238;stroke-linecap:round;stroke-linejoin:round;stroke:#263238"/>
</svg>
