<?xml version="1.0" encoding="UTF-8"?>
<svg width="210mm" height="18.935mm" style="clip-rule:evenodd;fill-rule:evenodd;image-rendering:optimizeQuality;shape-rendering:geometricPrecision;text-rendering:geometricPrecision" version="1.1" viewBox="0 0 21000 1893.5" xml:space="preserve" xmlns="http://www.w3.org/2000/svg">
 <defs>
  <style type="text/css">
   <![CDATA[
    .fil0 {fill:black}
    .fil2 {fill:black;fill-opacity:0.400000}
    .fil1 {fill:black;fill-opacity:0.600000}
   ]]>
  </style>
 </defs>
 
  
  <g transform="matrix(1.0031 0 0 1.0031 -40.395 -13949)">
   <path class="fil0" d="m1412.6 15243v-658.79c0-186.88-100.04-275.6-268.04-275.6-139.69 0-260.49 83.06-313.35 166.11-33.98-103.82-118.92-166.11-252.94-166.11-139.69 0-260.49 86.83-298.25 141.57v-118.91h-239.73v911.73h239.73v-613.48c35.87-50.97 105.71-107.6 188.76-107.6 98.16 0 135.91 60.4 135.91 145.35v575.73h241.62v-615.37c33.98-49.08 103.82-105.71 188.76-105.71 98.16 0 135.91 60.4 135.91 145.35l0.01 575.73zm658.79 22.65c-300.13 0-481.35-218.97-481.35-479.46 0-258.61 181.21-477.57 481.35-477.57 302.02 0 483.24 218.97 483.24 477.57 0 260.49-181.21 479.46-483.24 479.46zm0-213.3c149.12 0 234.07-122.7 234.07-266.16 0-141.57-84.94-264.27-234.07-264.27s-232.18 122.7-232.18 264.27c0 143.46 83.06 266.16 232.18 266.16zm1515.8 190.65v-643.69c0-177.44-96.27-290.7-296.36-290.7-149.12 0-260.49 71.73-319.01 141.57v-118.91h-239.74v911.73h239.74v-613.48c39.64-54.74 113.26-107.6 207.64-107.6 101.93 0 168 43.42 168 169.89v551.19zm660.67 22.65c-300.13 0-481.35-218.97-481.35-479.46 0-258.61 181.21-477.57 481.35-477.57 302.02 0 483.24 218.97 483.24 477.57 0 260.49-181.21 479.46-483.24 479.46zm0-213.3c149.12 0 234.07-122.7 234.07-266.16 0-141.57-84.94-264.27-234.07-264.27s-232.18 122.7-232.18 264.27c0 143.46 83.06 266.16 232.18 266.16zm900.4-101.94c39.64 58.52 128.36 101.93 205.75 101.93 139.69 0 232.18-105.71 232.18-264.27s-92.49-266.16-232.18-266.16c-77.39 0-166.11 45.3-205.75 105.71zm0 292.59h-239.73v-1259.1h239.73v464.36c71.73-92.49 173.66-139.69 281.26-139.69 232.18 0 403.96 181.21 403.96 479.46 0 303.91-173.66 477.57-403.96 477.57-109.48 0-209.53-49.08-281.26-139.69zm1653.6 0h-239.73v-94.38c-62.29 73.62-169.89 117.03-288.81 117.03-145.35 0-317.12-98.16-317.12-302.02 0-213.3 171.78-294.47 317.12-294.47 120.81 0 228.4 39.64 288.81 111.37v-122.7c0-92.49-79.28-152.9-200.09-152.9-98.16 0-188.76 35.87-266.16 107.6l-90.61-160.45c111.37-98.16 254.83-143.46 398.29-143.46 207.64 0 398.29 83.06 398.29 345.44zm-432.27-139.69c77.39 0 152.9-26.43 192.54-79.28v-113.26c-39.64-52.85-115.15-79.28-192.54-79.28-94.38 0-171.78 49.08-171.78 137.8 0 84.94 77.39 134.02 171.78 134.02zm1525.2 139.69v-643.69c0-177.44-96.27-290.7-296.36-290.7-149.12 0-260.49 71.73-319.01 141.57v-118.91h-239.73v911.73h239.73v-613.48c39.64-54.74 113.26-107.6 207.64-107.6 101.93 0 168 43.42 168 169.89v551.19zm1128.8 0-371.86-498.34 360.54-413.39h-294.48l-345.44 405.84v-753.17h-239.73v1259.1h239.73v-234.07l109.48-117.03 241.63 351.1z"/>
   
    <path class="fil1" d="m20274 14156h196.39v624.65h11.09l255.38-300.06 181.13-0.47-280.16 327.98 337.49 410.17h-226.19l-275.91-381.78h-2.83v381.78h-196.39v-1062.3m-9336.1 47.51v582.49c0 198.44 58.75 306.9 223.37 306.9 157.54 0 220.54-131.51 220.54-295.42v-593.97h185.61v630.24c0 256.25-167.84 401.44-411.98 401.44-279.53 0-424.88-135.04-424.88-411.58l0.01-620.1h207.33m1063.4 375.24c66.46-69.45 158.96-102.8 251.76-102.8 172.09 0 263.17 92.49 263.17 275.04v466.64l-195.29 0.01v-444.7c0-101.54-45.54-168.24-147.24-168.24-95.64 0-170.75 62.37-170.75 181.29v431.64l-195.53 0.01v-724.46h193.88v85.57m744.75 638.89h195.61v-724.46h-195.61zm-19.19-941.7c0-54.98 46.96-111.61 113.42-111.61 67.64 0 120.34 55.13 120.34 111.61 0 62.21-45.3 121.67-117.51 121.67-69.21 0-116.25-59.46-116.25-121.67zm647.54 941.7-313.03-727.53h207.24c63.39 166.66 129.15 323.42 190.81 524.76l2.99 0.01c66.46-201.35 128.99-358.1 196.55-524.76l183.49-0.01-331.44 727.53h-136.61m1050.1-449.02c7.63-110.43-32.17-185.54-128.99-185.54-112.24 0-162.57 88.33-160.45 185.54zm-292.67 104.29c-4.4 136.3 92.65 237.53 214.72 237.53 72.52 0 148.65-24.62 197.42-58.04l55.84 101.54c-100.04 57.89-204.65 81.25-288.42 81.25-222.19 0-388.3-155.18-388.3-394.2 0-223.21 164.54-365.02 375.01-365.02 229.51 0 325.22 180.98 310.75 396.96zm860.93-252.24h2.75l39.8-56.47c21.87-32.01 66.07-88.25 126.39-88.25 44.12 0 91.39 23.2 132.61 65.04l-73.78 133.31c-32.33-16.12-53.01-24.62-92.49-24.62-67.72 0-133.87 53.64-133.87 210v357.94l-196.23 0.02v-724.46h194.82v127.49m823.71 8.66c-44.04-31.85-89.66-46.25-125.21-46.25-44.04 0-88.25 24.54-88.25 73.85 0 57.97 70.79 91.39 153.06 150.54 104.76 77.16 135.36 152.43 135.36 218.73 0 101.78-113.42 208.98-274.97 208.98-101.62 0-176.57-34.92-245.55-82.66l61.74-100.12c43.89 35 107.04 69.53 159.9 69.53 56.31 0 106.1-29.02 106.1-89.82 0-68.11-76.61-105.71-147-155.02-83.92-56.39-141.1-111.53-141.1-201.19 0-114.67 111.53-199.93 255.62-199.93 81.25 0 160.45 20.13 213.78 66.7l-63.47 86.67m557.32 202.91c-95.48 30.44-144.01 84-144.01 166.51 0 63.87 41.21 107.36 88.64 107.36 77.63 0 179.25-95.72 164.7-308.63zm62.14 315.94c-53.09 43.49-120.73 86.99-188.21 86.99-114.83 0-210.79-86.99-210.79-220.3 0-137.8 101.78-214.48 272.53-263.88l173.66-50.73c-10.22-66.54-70.79-108.46-133.71-108.46-84.16 0-143.07 30.44-194.51 73.93l-63.47-91.31c91.47-73.85 180.98-98.47 282.36-98.47 135.67 0 302.02 43.18 302.02 269.46v295.42c0 58.04 7.16 126.31 30.91 176.81l-207.4-0.01c-15.1-24.7-19.27-66.54-19.27-105.71zm459.09 69.45h195.84v-1064.9h-195.84zm1928.8-385.39c-95.8 30.44-144.33 84-144.33 166.51 0 63.87 40.98 107.36 88.33 107.36 77.63 0 179.33-95.72 165.01-308.63zm61.35 315.94c-52.7 43.49-120.49 86.99-188.21 86.99-114.6 0-210.47-86.99-210.47-220.3 0-137.8 101.62-214.48 272.53-263.88l173.82-50.73c-10.78-66.54-70.79-108.46-134.49-108.46-83.61 0-142.6 30.44-194.03 73.93l-63.31-91.31c91.24-73.85 181.13-98.47 282.83-98.47 135.04 0 301.16 43.18 301.16 269.46v295.42c0 58.04 7.31 126.31 30.75 176.81l-207.11-0.01c-14.55-24.7-19.43-66.54-19.43-105.71zm653.36-569.44c66.3-69.45 159.11-102.8 251.69-102.8 172.09 0 263.25 92.49 263.25 275.04v466.64l-195.62 0.01v-444.7c0-101.54-45.62-168.24-147.16-168.24-95.72 0-170.67 62.37-170.67 181.29v431.64l-195.6 0.01v-724.46h194.11v85.57m-1733.9 516.9h105.87c114.83 0 201.9-59.3 201.9-172.17 0-118.92-89.82-169.57-203.08-169.57h-104.69zm0-466.32h65.05c119.31 0 200.33-75.27 200.33-169.65 0-89.66-68.03-128.67-157.7-128.67l-107.76-0.01v298.33zm-207.25 591.06v-1014.1h372.34c173.43 0 295.73 78.18 295.73 215.82 0 162.18-133.87 229.03-205.91 247.75v2.91c128.04 5.9 270.56 92.65 270.56 247.67 0 175.24-148.73 299.98-391.13 299.98z"/>
   
   <polygon class="fil2" points="9910.1 15794 9831.5 15794 9831.5 13906 9910.1 13906"/>
  </g>
 
</svg>
